<?xml version="1.0" encoding="UTF-8"?>
<svg xmlns="http://www.w3.org/2000/svg" viewBox="0 0 381.48 94.2">
  <g>
    <g>
      <path fill="#fff"
        d="M242.73,51.47v37.48c0,2.88-2.34,5.22-5.22,5.22h-5.47c-2.88,0-5.22-2.34-5.22-5.22v-37.48c0-2.88,2.34-5.22,5.22-5.22h5.47c2.88,0,5.22,2.34,5.22,5.22Z" />
      <path fill="#fff"
        d="M381.48,51.47v37.48c0,2.88-2.34,5.22-5.22,5.22h-5.47c-2.88,0-5.22-2.34-5.22-5.22v-37.48c0-2.88,2.34-5.22,5.22-5.22h5.47c2.88,0,5.22,2.34,5.22,5.22Z" />
      <path fill="#fff"
        d="M210.37,51.47v37.48c0,2.88-2.34,5.22-5.22,5.22h-5.47c-2.88,0-5.22-2.34-5.22-5.22v-37.48c0-2.88,2.34-5.22,5.22-5.22h5.47c2.88,0,5.22,2.34,5.22,5.22Z" />
      <path fill="#fff"
        d="M172.79,78.25h-28.63l31.76-38.09c1.35-1.47,2.09-3.37,2.09-5.37,0-4.39-3.57-7.95-7.96-7.95h-45.58c-2.88,0-5.22,2.34-5.22,5.22v5.47c0,2.88,2.34,5.22,5.22,5.22h28.61l-31.81,38.18c-1.3,1.46-2.02,3.33-2.02,5.28,0,4.39,3.57,7.96,7.96,7.96h45.58c2.88,0,5.22-2.34,5.22-5.22v-5.47c0-2.88-2.34-5.22-5.22-5.22Z" />
      <path fill="#fff"
        d="M74.77,26.83c-18.56,0-33.66,15.1-33.66,33.66s15.1,33.67,33.66,33.67,33.66-15.1,33.66-33.67-15.1-33.66-33.66-33.66ZM57.01,60.5c0-9.79,7.96-17.75,17.75-17.75s17.75,7.96,17.75,17.75-7.96,17.75-17.75,17.75-17.75-7.96-17.75-17.75Z" />
      <path fill="#fff"
        d="M26.76,27.55C11.25,30.79,0,44.65,0,60.5v28.44c0,2.88,2.34,5.22,5.22,5.22h5.47c2.88,0,5.22-2.34,5.22-5.22v-28.44c0-8.06,5.45-15.12,13.25-17.17,2.29-.6,3.89-2.68,3.89-5.05v-5.62c0-1.57-.71-3.06-1.93-4.05-1.22-.99-2.82-1.38-4.36-1.06Z" />
      <path fill="#fff"
        d="M315.49,26.51c-18.66,0-33.84,15.18-33.84,33.84s15.18,33.84,33.84,33.84h0c1.09,0,2.18-.05,3.25-.16,2.69-.26,4.74-2.52,4.74-5.22v-5.54c0-1.5-.65-2.93-1.77-3.93-1.13-.99-2.62-1.46-4.12-1.28-.68.08-1.38.13-2.1.13-9.84,0-17.85-8.01-17.85-17.85s8.01-17.84,17.85-17.84,17.85,8,17.85,17.84v28.59c0,2.9,2.35,5.25,5.25,5.25h5.5c2.9,0,5.25-2.35,5.25-5.25v-28.59c0-18.66-15.18-33.84-33.84-33.84Z" />
      <circle fill="#18d697" cx="373.53" cy="34.47" r="7.96" />
      <circle fill="#18d697" cx="265.25" cy="86.21" r="7.96" />
      <path fill="#18d697"
        d="M235.43.1c3.66-.68,7.03,2.13,7.03,5.85v28.84c0,2.43-1.09,4.6-2.8,6.05-1.66,1.43-3.9,2.17-6.31,1.83-3.52-.5-6.34-3.4-6.75-6.93-.56-4.81,3.19-8.9,7.91-8.9.62,0,1.22.07,1.8.21,1.05.25,2.06-.57,2.06-1.65v-8.89c0-1.71-1.55-3-3.24-2.69l-22.52,4.17c-1.3.24-2.24,1.37-2.24,2.69v14.12c0,2.43-1.09,4.6-2.8,6.05-1.39,1.2-3.2,1.91-5.16,1.91-4.91,0-8.79-4.45-7.81-9.54.61-3.15,3.17-5.67,6.33-6.24,1.14-.2,2.26-.17,3.29.08s2.05-.57,2.05-1.65v-14.95c0-2.87,2.05-5.33,4.87-5.85L235.43.1Z" />
    </g>
  </g>
</svg>